<?xml version="1.0" encoding="UTF-8" standalone="no"?><!--Created with Inkscape (http://www.inkscape.org/)--><svg width="320mm" height="256mm" viewBox="0 0 320 256" version="1.1" sodipodi:docname="comic-ranz_path.svg" inkscape:version="1.1.1 (3bf5ae0d25, 2021-09-20)" xmlns:inkscape="http://www.inkscape.org/namespaces/inkscape" xmlns:sodipodi="http://sodipodi.sourceforge.net/DTD/sodipodi-0.dtd" xmlns="http://www.w3.org/2000/svg" xmlns:svg="http://www.w3.org/2000/svg"><sodipodi:namedview pagecolor="#ffffff" bordercolor="#666666" borderopacity="1.0" inkscape:pageshadow="2" inkscape:pageopacity="0.0" inkscape:pagecheckerboard="0" inkscape:document-units="mm" showgrid="false" units="mm" width="320mm" showguides="false" inkscape:zoom="0.64" inkscape:cx="330.46875" inkscape:cy="456.25" inkscape:window-width="1916" inkscape:window-height="1023" inkscape:window-x="0" inkscape:window-y="0" inkscape:window-maximized="1" inkscape:current-layer="layer1"/><defs/><g inkscape:label="Layer 1" inkscape:groupmode="layer"><path d="M51 57Q47 57 46 53L44 51 40 50Q35 50 28 59 17 71 17 81 17 86 21 90 24 93 28 93 33 93 37 91L44 87Q47 84 49 84 52 84 54 86L55 90Q55 93 53 95 41 105 28 105 18 105 11 98 5 91 5 81 5 67 18 51 29 38 40 38H44L47 39 51 37Q56 37 57 42L58 51 56 55Q55 57 51 57zM93 107Q80 107 71 99 61 91 61 78 61 63 71 51 81 37 97 37T120 44Q128 51 128 66T119 93Q109 107 93 107zM97 49Q87 49 80 59 74 68 74 78 74 86 79 90 85 95 93 95 103 95 109 85 115 77 115 66 115 56 111 53 107 49 97 49zM154 69 149 91 147 101Q145 107 140 107 137 107 135 105L134 101Q134 94 137 83L142 66 144 53Q146 43 149 40 151 37 155 37T161 41L164 57 170 82 179 53 182 43Q184 36 189 36T196 44L198 55Q201 74 205 87L209 102 207 106Q205 108 202 108 198 108 195 101L193 90 188 67 182 86 179 94 176 102Q173 106 169 106T163 101L160 93 154 69zM253 52 240 51 239 72V92H251Q254 92 256 94 258 95 258 98L256 102Q254 104 251 104H237L228 105 219 106Q216 106 215 104L213 100Q213 97 215 95L219 94 227 93V73L228 50H218L214 49Q212 47 212 44L214 40 218 39 231 38 254 40Q259 41 259 46 259 49 257 51L253 52zM308 57Q305 57 303 53L301 51 297 50Q292 50 285 59 274 71 274 81 274 86 278 90 281 93 285 93 290 93 294 91L301 87Q304 84 306 84 309 84 311 86L312 90Q312 93 310 95 298 105 285 105 275 105 269 98 262 91 262 81 262 67 275 51 286 38 297 38H301L304 39 308 37Q313 37 314 42L315 51 313 55Q312 57 308 57zM79 217 75 216Q61 203 45 198L46 212Q46 215 44 217L39 218 35 217Q33 215 33 212V203L34 193V157L35 152Q38 149 42 149L53 150 63 153Q82 162 82 177 82 182 78 187 74 191 66 194 78 201 84 208L85 211Q85 214 83 216L79 217zM51 162H45V185H47Q58 185 63 182L68 179 69 177Q69 172 63 167 57 163 51 162zM142 218Q139 218 135 210L131 198 121 199 110 200 103 215Q101 218 97 218L93 216Q91 215 91 212L98 197 97 194Q97 192 101 191L115 168Q126 152 129 152 134 152 135 158L138 172 145 201 147 207 148 212 147 217 142 218zM126 173 116 189 122 188H129L126 173zM223 206 222 213Q221 219 216 219 213 219 209 215 192 200 170 172V207Q170 220 164 220 161 220 159 218 157 217 157 214V209L158 203V171L157 163V155L159 151Q161 149 164 149 168 149 171 154 192 183 211 201V165L210 160V155Q210 149 216 149 223 149 223 171V206zM283 164 277 168Q269 174 259 187L244 208H243 259L274 207 283 208Q288 209 288 213 288 216 286 217L282 219H234L229 218Q227 216 227 213T230 206L235 199 249 180Q258 169 266 162H234L230 161Q228 159 228 156 228 150 237 150L246 151H275Q289 151 289 157 289 160 283 164z" style="font-weight:bold;font-size:90.3111px;line-height:1.25;font-family:'Comic Sans MS';-inkscape-font-specification:'Comic Sans MS, Bold';text-align:center;text-anchor:middle;fill-opacity:0;stroke:#000000"/></g></svg>