<?xml version="1.0" encoding="UTF-8" standalone="no"?>
<!-- Created with Inkscape (http://www.inkscape.org/) -->

<svg width="320mm" height="256mm" viewBox="0 0 320 256" version="1.1" id="svg209" sodipodi:docname="comic-glanz_path.svg" inkscape:version="1.1.1 (3bf5ae0d25, 2021-09-20)"
   xmlns:inkscape="http://www.inkscape.org/namespaces/inkscape"
   xmlns:sodipodi="http://sodipodi.sourceforge.net/DTD/sodipodi-0.dtd"
   xmlns="http://www.w3.org/2000/svg"
   xmlns:svg="http://www.w3.org/2000/svg">
   <sodipodi:namedview id="namedview211" pagecolor="#ffffff" bordercolor="#666666" borderopacity="1.0" inkscape:pageshadow="2" inkscape:pageopacity="0.0" inkscape:pagecheckerboard="0" inkscape:document-units="mm" showgrid="false" units="mm" width="320mm" showguides="false" inkscape:zoom="0.5" inkscape:cx="519" inkscape:cy="458" inkscape:window-width="1916" inkscape:window-height="1023" inkscape:window-x="0" inkscape:window-y="0" inkscape:window-maximized="1" inkscape:current-layer="layer1" inkscape:snap-nodes="false" />
   <defs id="defs206">
      <inkscape:path-effect effect="bspline" id="path-effect2409" is_visible="true" lpeversion="1" weight="35.1333" steps="1" helper_size="9" apply_no_weight="true" apply_with_weight="true" only_selected="true" />
      <inkscape:path-effect effect="bspline" id="path-effect1577" is_visible="true" lpeversion="1" weight="33.333333" steps="1" helper_size="0" apply_no_weight="true" apply_with_weight="true" only_selected="false" />
      <inkscape:path-effect effect="bspline" id="path-effect1558" is_visible="true" lpeversion="1" weight="33.333333" steps="1" helper_size="0" apply_no_weight="true" apply_with_weight="true" only_selected="false" />
      <inkscape:path-effect effect="bspline" id="path-effect1028" is_visible="true" lpeversion="1" weight="33.333333" steps="1" helper_size="0" apply_no_weight="true" apply_with_weight="true" only_selected="false" />
      <inkscape:path-effect effect="mirror_symmetry" start_point="146.19958,186.92721" end_point="146.19958,239.29176" center_point="146.19958,213.10948" id="path-effect15331" is_visible="true" lpeversion="1.1" mode="free" discard_orig_path="false" fuse_paths="false" oposite_fuse="false" split_items="false" split_open="false" />
      <inkscape:path-effect effect="bspline" id="path-effect15327" is_visible="true" lpeversion="1" weight="33.333333" steps="2" helper_size="0" apply_no_weight="true" apply_with_weight="true" only_selected="false" />
      <inkscape:path-effect effect="mirror_symmetry" start_point="146.19958,186.92721" end_point="146.19958,239.29176" center_point="146.19958,213.10948" id="path-effect14855" is_visible="true" lpeversion="1.1" mode="free" discard_orig_path="false" fuse_paths="true" oposite_fuse="false" split_items="false" split_open="false" />
      <inkscape:path-effect effect="bspline" id="path-effect14853" is_visible="true" lpeversion="1" weight="33" steps="1" helper_size="1" apply_no_weight="true" apply_with_weight="true" only_selected="false" />
      <inkscape:path-effect effect="mirror_symmetry" start_point="139.30703,195.92696" end_point="139.30703,243.7558" center_point="139.30703,219.84138" id="path-effect14177" is_visible="true" lpeversion="1.1" mode="free" discard_orig_path="false" fuse_paths="false" oposite_fuse="false" split_items="false" split_open="false" />
      <inkscape:path-effect effect="bspline" id="path-effect14175" is_visible="true" lpeversion="1" weight="33.333333" steps="2" helper_size="0" apply_no_weight="true" apply_with_weight="true" only_selected="false" />
      <inkscape:path-effect effect="bspline" id="path-effect12855" is_visible="true" lpeversion="1" weight="33.333333" steps="2" helper_size="0" apply_no_weight="true" apply_with_weight="true" only_selected="false" />
      <inkscape:path-effect effect="bspline" id="path-effect11299" is_visible="true" lpeversion="1" weight="33.333333" steps="2" helper_size="0" apply_no_weight="true" apply_with_weight="true" only_selected="false" />
   </defs>
   <g inkscape:label="Layer 1" inkscape:groupmode="layer" id="layer1" style="fill:none;fill-opacity:1;stroke:#000000;stroke-opacity:1;stroke-width:1;stroke-miterlimit:4;stroke-dasharray:none">
      <path d="m 20.348277,33.625465 q 0,-12.3379 12.3379,-12.3379 12.3379,0 12.3379,12.3379 0,-12.3379 12.33789,-12.3379 12.3379,0 12.3379,12.3379 0,18.50685 -24.67579,37.01369 -24.6758,-18.50684 -24.6758,-37.01369 z" id="path2631" />
      <path d="m 102.55487,36.437662 q -2.08632,0 -3.083114,-2.202223 -0.463626,-1.043158 -0.927252,-1.25179 -0.34772,-0.162269 -1.831322,-0.162269 -2.920845,0 -6.745759,4.543535 -5.354879,6.351675 -5.354879,11.892006 0,2.526761 1.692234,4.334903 1.692235,1.808141 4.056727,1.808141 2.294949,0 4.659441,-1.205428 0.834527,-0.440444 3.523558,-2.271767 1.808146,-1.205427 2.735396,-1.205427 1.39087,0 2.3645,1.019976 0.90407,0.950434 0.90407,2.179043 0,1.367697 -1.20543,2.387673 -6.374864,5.378061 -12.981535,5.378061 -5.215791,0 -8.808893,-3.801732 -3.430832,-3.662645 -3.430832,-8.623443 0,-7.765735 6.79212,-15.856009 5.772144,-6.861664 11.799282,-6.861664 1.019976,0 1.831322,0.06954 0.834527,0.06954 1.460426,0.208632 1.01997,-0.996796 2.45722,-0.996796 2.36449,0 2.92085,2.712212 0.39409,1.947229 0.39409,4.543535 0,1.159064 -0.67227,2.109497 -0.88089,1.25179 -2.54995,1.25179 z" id="path842" />
      <path d="m 124.55395,62.539805 q -6.86167,0 -11.68337,-3.940821 -5.14626,-4.218996 -5.14626,-10.918391 0,-7.881642 4.93762,-14.372406 5.54034,-7.302108 13.95515,-7.302108 8.09027,0 12.12382,3.709008 4.03355,3.709007 4.03355,11.150204 0,7.881641 -4.54354,14.279679 -5.23898,7.394835 -13.67697,7.394835 z m 2.06314,-30.251594 q -5.16944,0 -8.85525,5.00716 -3.45403,4.682623 -3.45403,10.385222 0,3.848095 2.99039,6.25895 2.87448,2.31813 7.25575,2.31813 5.09989,0 8.50753,-5.00716 3.12948,-4.566716 3.12948,-10.385222 0,-4.868073 -2.17903,-6.768939 -2.08632,-1.808141 -7.39484,-1.808141 z" id="path844" />
      <path d="m 156.49777,42.81252 q -1.04315,3.75537 -2.92084,11.335655 -0.44044,2.619486 -0.85771,5.215792 -0.95043,3.291745 -3.50037,3.291745 -1.59951,0 -2.52676,-1.089521 -0.78817,-0.927253 -0.78817,-2.202224 0,-3.755371 1.59952,-9.156612 2.38767,-8.090274 2.57312,-8.971163 0.67226,-3.56992 1.36769,-7.13984 1.04317,-4.914435 2.24859,-6.537126 1.22861,-1.645873 3.08311,-1.645873 2.1095,0 3.1063,2.13268 0.92725,2.016773 1.99358,8.252542 1.01999,6.050319 3.03676,13.027889 2.64267,-6.884845 4.91443,-15.114206 l 1.29816,-5.331698 q 1.25179,-3.314926 3.87127,-3.314926 2.52677,0 3.75537,3.848096 0.50999,1.553147 1.08953,5.795324 1.34451,9.875233 3.38447,16.922348 2.06313,7.163021 2.06313,7.788916 0,1.367697 -1.08952,2.294948 -1.01997,0.834527 -2.29496,0.834527 -2.52676,0 -3.75537,-3.616283 l -1.29815,-5.609874 q -1.11269,-4.172633 -2.41084,-11.984731 -1.04317,3.106294 -3.45402,9.759327 l -1.39088,4.265359 q -0.85771,2.526761 -1.78495,4.149452 -1.22861,2.155861 -3.43085,2.155861 -2.17903,0 -3.3381,-2.573124 l -1.29815,-4.311721 q -1.80814,-5.934413 -3.24539,-12.471539 z" id="path846" />
      <path d="m 208.33116,33.725451 q -1.20543,0 -6.60667,-0.649076 -0.32454,4.265358 -0.32454,11.335654 l -0.0232,10.408403 q 3.08312,-0.06954 6.28213,-0.06954 1.39089,0 2.29496,0.927252 0.92725,0.927251 0.92725,2.225405 0,1.298152 -0.92725,2.225404 -0.90407,0.904071 -2.29496,0.904071 -1.29815,0 -3.89445,0.06954 -2.5963,0.04636 -3.89445,0.04636 -1.52997,0 -4.5899,0.394082 -3.05994,0.417263 -4.5899,0.417263 -1.39088,0 -2.31813,-0.904071 -0.90407,-0.927252 -0.90407,-2.225404 0,-1.298152 0.90407,-2.225405 0.92725,-0.927252 2.31813,-0.927252 1.57632,0 4.14946,-0.347719 -0.0463,-2.735393 -0.0463,-10.477947 0,-6.305313 0.46363,-12.031094 l -5.03034,0.139088 q -1.39088,0 -2.34131,-0.904071 -0.92725,-0.904071 -0.92725,-2.248586 0,-1.367696 0.92725,-2.225405 0.85771,-0.788163 2.1095,-0.90407 2.03995,-0.185451 7.09347,-0.185451 4.54354,0 11.70656,0.973615 2.8513,0.394082 2.8513,3.19902 0,1.483602 -1.15907,2.341311 -0.95043,0.71862 -2.15586,0.71862 z" id="path848" />
      <path d="m 237.67869,36.437662 q -2.08632,0 -3.08312,-2.202223 -0.46363,-1.043158 -0.92725,-1.25179 -0.34772,-0.162269 -1.83132,-0.162269 -2.92084,0 -6.74575,4.543535 -5.35488,6.351675 -5.35488,11.892006 0,2.526761 1.69223,4.334903 1.69223,1.808141 4.05672,1.808141 2.29495,0 4.65945,-1.205428 0.83452,-0.440444 3.52355,-2.271767 1.80815,-1.205427 2.7354,-1.205427 1.39087,0 2.36448,1.019976 0.90408,0.950434 0.90408,2.179043 0,1.367697 -1.20543,2.387673 -6.37486,5.378061 -12.98153,5.378061 -5.21579,0 -8.80889,-3.801732 -3.43083,-3.662645 -3.43083,-8.623443 0,-7.765735 6.79211,-15.856009 5.77215,-6.861664 11.79929,-6.861664 1.01997,0 1.83132,0.06954 0.83453,0.06954 1.46043,0.208632 1.01997,-0.996796 2.45722,-0.996796 2.36448,0 2.92084,2.712212 0.39408,1.947229 0.39408,4.543535 0,1.159064 -0.67226,2.109497 -0.88089,1.25179 -2.54994,1.25179 z" id="path850" />
      <path d="m 250.24226,33.625465 q 0,-12.3379 12.3379,-12.3379 12.3379,0 12.3379,12.3379 0,-12.3379 12.33789,-12.3379 12.3379,0 12.3379,12.3379 0,18.50685 -24.67579,37.01369 -24.6758,-18.50684 -24.6758,-37.01369 z" id="path2631-6" />
      <path d="m 309.59291,102.93992 q -2.42535,1.49931 -5.95313,3.83646 -7.45243,5.51215 -17.63888,18.9618 -7.80521,10.49514 -15.61042,21.03437 l -0.17639,0.22049 q 3.2191,-0.0882 15.52222,-0.61736 9.65729,-0.44097 15.38993,-0.44097 6.3059,0 8.55486,0.48507 5.29167,1.14652 5.46805,5.07117 0.1323,2.91042 -2.02847,4.58612 -1.85208,1.4552 -4.45382,1.4552 -1.27882,0 -3.83645,-0.17639 -2.55764,-0.13229 -3.83646,-0.13229 -6.70278,0 -20.15243,0.30868 -13.40555,0.35278 -20.10833,0.35278 -2.86632,0 -4.7184,-1.45521 -2.07257,-1.5875 -2.07257,-4.45382 0,-3.175 2.77812,-7.54062 0.88195,-1.36701 4.98299,-6.65868 7.23194,-9.65729 14.50798,-19.27048 8.64306,-11.1125 16.18368,-17.99167 -6.87916,0.48507 -10.49514,0.48507 h -17.81527 q -0.48507,0 -1.41111,0.0882 -0.92604,0.0441 -1.41111,0.0441 -2.60174,0 -4.40972,-1.49931 -2.02848,-1.675694 -2.02848,-4.497916 0,-6.041318 8.95174,-6.041318 3.04271,0 9.08402,0.396875 6.04132,0.352777 9.08403,0.352777 3.39549,0 10.14236,-0.176388 6.79097,-0.176389 10.18646,-0.176389 13.14097,0 13.14097,5.732638 0,3.660069 -5.82083,7.717011 z" id="path11704" />
      <path d="m 249.70889,144.78818 q 0,2.20486 -0.74965,6.96736 -0.88195,5.68854 -6.4382,5.68854 -3.0868,0 -6.96736,-3.48368 -16.97742,-15.30173 -38.32048,-42.90659 -0.26458,11.46527 -0.26458,14.06701 0,3.48368 0.13229,10.49514 0.17639,7.01145 0.17639,10.49513 0,13.00868 -6.35,13.00868 -3.21909,0 -5.15937,-1.98437 -1.71979,-1.76389 -1.71979,-4.27743 0,-1.76389 0.26458,-5.33576 0.30868,-3.57188 0.30868,-5.33577 0,-2.60173 0.17639,-7.8052 0.17639,-5.20348 0.17639,-7.80521 0,-2.77813 -0.13229,-8.37847 -0.13229,-5.60035 -0.13229,-8.37847 0,-2.64584 -0.52917,-7.8934 -0.52917,-5.247573 -0.52917,-7.893406 0,-2.645833 2.24896,-4.718402 2.29306,-2.072569 5.20347,-2.072569 3.2632,0 7.23194,5.644443 20.02014,28.574994 39.51111,46.610754 0.0441,-1.41111 0.0441,-6.70277 0,-21.73993 -0.44098,-29.32465 -0.0882,-1.27882 -0.57326,-4.762501 -0.44097,-3.086805 -0.44097,-4.850694 0,-6.085416 6.43819,-6.085416 7.18785,0 7.18785,22.180901 0,0.48507 -0.0882,6.96736 -0.26458,22.40138 -0.26458,27.86944 z" id="path11702" />
      <path d="m 169.05509,156.95901 q -3.48368,-0.13229 -7.01145,-8.20208 -2.33715,-5.20347 -4.01285,-11.99444 -3.26319,0.48506 -10.67152,0.97013 -6.96736,0.48507 -10.67153,1.14653 -2.02847,4.8507 -7.05556,14.59618 -1.94027,3.175 -5.37986,3.175 -2.42534,0 -4.36562,-1.6316 -1.94028,-1.67569 -1.94028,-4.23333 0,-2.24896 6.4382,-15.25764 -0.61736,-1.36701 -0.52917,-2.55764 0.17639,-2.11666 4.27743,-3.30729 6.2618,-10.84791 13.93472,-22.48958 11.0243,-16.712841 13.58194,-16.712841 4.8507,0 6.48229,5.86493 0.88195,4.718401 2.77813,14.155211 2.68993,12.69999 6.57048,29.06006 0.30868,1.23472 2.24896,5.82083 1.5875,3.79236 1.5875,5.68854 0,2.55764 -1.94028,4.27743 -1.89618,1.71979 -4.32153,1.6316 z m -16.44826,-45.24374 q -3.43958,5.90902 -9.4809,16.09548 1.98438,-0.44097 6.17361,-0.70555 4.93889,-0.30869 6.21771,-0.48507 -1.05833,-5.73264 -2.91042,-14.90486 z" id="path11700" />
      <path d="m 110.14121,153.9604 q -5.20347,2.29305 -16.095477,4.10104 -9.965971,1.67569 -16.360067,1.67569 -10.803818,0 -10.803818,-9.4809 0,0.74966 0.881945,-13.97881 1.146527,-19.1382 1.146527,-42.597914 0,-2.513541 1.719792,-4.27743 1.763888,-1.763888 4.409721,-1.763888 2.645833,0 4.409722,1.763888 1.763888,1.763889 1.763888,4.27743 0,23.503814 -1.190625,43.303464 -0.396875,3.52778 -0.837847,10.80382 10.45104,-0.17639 26.811099,-5.11528 1.01424,-0.30868 1.94028,-0.30868 2.77813,0 4.49792,2.02847 1.5434,1.80799 1.5434,4.05695 0,3.79236 -3.83646,5.51215 z" id="path11698" />
      <path d="m 61.678376,129.70693 q -2.99861,13.14097 -12.082636,21.03437 -9.216318,7.9375 -21.607636,7.9375 -11.729859,0 -17.594788,-6.17361 -5.8649298,-6.21771 -5.8649298,-18.60902 0,-11.28889 5.5562488,-23.15104 5.556249,-11.862152 14.287498,-19.226387 6.129513,-5.159375 13.14097,-5.159375 4.27743,0 11.641664,3.086806 8.731249,3.660068 8.731249,7.805207 0,2.381249 -1.807986,4.277429 -1.807986,1.85208 -4.453819,1.85208 -1.322916,0 -5.864929,-2.46944 -4.497916,-2.513542 -8.246179,-2.513542 -3.96875,0 -10.715624,8.554862 -9.833678,12.43541 -9.833678,26.9434 0,7.36423 2.160763,10.01006 2.293055,2.77813 8.86354,2.77813 6.746874,0 11.862151,-3.83646 5.423958,-4.05694 8.025693,-11.81805 -10.230554,0.79375 -17.815275,4.18923 -1.367013,0.61736 -2.734027,0.61736 -2.734027,0 -4.542013,-2.02847 -1.631597,-1.80798 -1.631597,-4.10104 0,-6.74687 15.963192,-9.4368 8.995832,-1.49931 20.990274,-1.49931 2.645833,0 4.409722,1.71979 1.807985,1.71979 1.807985,4.23334 0,3.21909 -2.645833,4.98298 z" id="path11696" />
      <path d="m 45.51674,187.74831 q 10,-5 90,-5 80,0 90,5" id="path2200" />
      <path id="path15377" d="m 280.00686,237.21118 -26.54562,-10.07881 -18.18471,21.80937 1.38176,-28.36233 -26.36077,-10.55417 27.40112,-7.45063 1.8922,-28.33181 15.55301,23.75773 27.52987,-6.95586 -17.7882,22.13325 z" />
      <path d="m 225.51674,187.74831 q -10,5 -90,5 -80,0 -90,-5" id="path2203" />
      <path d="m 16.223278,209.33296 q 10,-5 90.000002,-5 80,0 90,5 -10,5 -90,5 -80.000002,0 -90.000002,-5" id="path945-8" />
      <path d="m 33.395356,232.55532 q 10,-5 90.000004,-5 79.99999,0 89.99999,5 -10,5 -89.99999,5 -80.000004,0 -90.000004,-5" id="path945-5" />
   </g>
</svg>
