<?xml version="1.0" encoding="UTF-8" standalone="no"?><!--Created with Inkscape (http://www.inkscape.org/)--><svg width="320mm" height="256mm" viewBox="0 0 320 256" version="1.1" sodipodi:docname="comic-glanz_path.svg" inkscape:version="1.1.1 (3bf5ae0d25, 2021-09-20)" xmlns:inkscape="http://www.inkscape.org/namespaces/inkscape" xmlns:sodipodi="http://sodipodi.sourceforge.net/DTD/sodipodi-0.dtd" xmlns="http://www.w3.org/2000/svg" xmlns:svg="http://www.w3.org/2000/svg"><sodipodi:namedview pagecolor="#ffffff" bordercolor="#666666" borderopacity="1.0" inkscape:pageshadow="2" inkscape:pageopacity="0.0" inkscape:pagecheckerboard="0" inkscape:document-units="mm" showgrid="false" units="mm" width="320mm" showguides="false" inkscape:zoom="0.5" inkscape:cx="519" inkscape:cy="458" inkscape:window-width="1916" inkscape:window-height="1023" inkscape:window-x="0" inkscape:window-y="0" inkscape:window-maximized="1" inkscape:current-layer="layer1" inkscape:snap-nodes="false"/><defs><inkscape:path-effect effect="bspline" is_visible="true" lpeversion="1" weight="35.1333" steps="1" helper_size="9" apply_no_weight="true" apply_with_weight="true" only_selected="true"/><inkscape:path-effect effect="bspline" is_visible="true" lpeversion="1" weight="33.333333" steps="1" helper_size="0" apply_no_weight="true" apply_with_weight="true" only_selected="false"/><inkscape:path-effect effect="bspline" is_visible="true" lpeversion="1" weight="33.333333" steps="1" helper_size="0" apply_no_weight="true" apply_with_weight="true" only_selected="false"/><inkscape:path-effect effect="bspline" is_visible="true" lpeversion="1" weight="33.333333" steps="1" helper_size="0" apply_no_weight="true" apply_with_weight="true" only_selected="false"/><inkscape:path-effect effect="mirror_symmetry" start_point="146.19958,186.92721" end_point="146.19958,239.29176" center_point="146.19958,213.10948" is_visible="true" lpeversion="1.1" mode="free" discard_orig_path="false" fuse_paths="false" oposite_fuse="false" split_items="false" split_open="false"/><inkscape:path-effect effect="bspline" is_visible="true" lpeversion="1" weight="33.333333" steps="2" helper_size="0" apply_no_weight="true" apply_with_weight="true" only_selected="false"/><inkscape:path-effect effect="mirror_symmetry" start_point="146.19958,186.92721" end_point="146.19958,239.29176" center_point="146.19958,213.10948" is_visible="true" lpeversion="1.1" mode="free" discard_orig_path="false" fuse_paths="true" oposite_fuse="false" split_items="false" split_open="false"/><inkscape:path-effect effect="bspline" is_visible="true" lpeversion="1" weight="33" steps="1" helper_size="1" apply_no_weight="true" apply_with_weight="true" only_selected="false"/><inkscape:path-effect effect="mirror_symmetry" start_point="139.30703,195.92696" end_point="139.30703,243.7558" center_point="139.30703,219.84138" is_visible="true" lpeversion="1.1" mode="free" discard_orig_path="false" fuse_paths="false" oposite_fuse="false" split_items="false" split_open="false"/><inkscape:path-effect effect="bspline" is_visible="true" lpeversion="1" weight="33.333333" steps="2" helper_size="0" apply_no_weight="true" apply_with_weight="true" only_selected="false"/><inkscape:path-effect effect="bspline" is_visible="true" lpeversion="1" weight="33.333333" steps="2" helper_size="0" apply_no_weight="true" apply_with_weight="true" only_selected="false"/><inkscape:path-effect effect="bspline" is_visible="true" lpeversion="1" weight="33.333333" steps="2" helper_size="0" apply_no_weight="true" apply_with_weight="true" only_selected="false"/></defs><g inkscape:label="Layer 1" inkscape:groupmode="layer" style="fill:none;fill-opacity:1;stroke:#000000;stroke-opacity:1;stroke-width:1;stroke-miterlimit:4;stroke-dasharray:none"><path d="M20 34q0-13 13-13 12 0 12 13 0-13 12-13 13 0 13 13 0 18-25 37-25-19-25-37zm83 2q-3 0-4-2v-1h-2q-3 0-7 4-5 7-5 12l1 5 4 1 5-1 4-2 2-1 3 1 1 2-2 2q-6 6-13 6-5 0-8-4-4-4-4-9 0-8 7-16 6-6 12-6h3l2-1q3 0 3 3l1 4-1 2-2 1zm22 27q-7 0-12-4-5-5-5-11 0-8 5-15 5-7 14-7 8 0 12 4 4 3 4 11 0 8-5 14-5 8-13 8zm2-31q-6 0-9 5-4 5-4 11 0 4 3 6 3 2 8 2 5 0 8-5 3-4 3-10 0-5-2-7-2-2-7-2zm29 11-2 11-1 5q-1 4-4 4l-2-1-1-3 2-9 2-9 1-7q1-5 3-6 1-2 3-2 2 0 3 2l2 8 3 13 5-15 1-5q1-3 4-3 3 0 4 3l1 6 3 17 2 8-1 2-2 1q-3 0-4-4l-1-5-3-12-3 10-1 4-2 4q-1 2-4 2-2 0-3-2l-1-5-4-12zm52-9-6-1-1 11v11h7l2 1 1 2-1 2-2 1h-8l-5 1h-4l-3-1-1-2 1-2 3-1 4-1v-22h-5l-2-1-1-2 1-2 2-1 7-1 12 1q3 1 3 4l-2 2-2 1zm30 2q-2 0-3-2l-1-1h-2q-3 0-7 4-5 7-5 12l1 5 4 1 5-1 4-2 2-1 3 1 1 2-2 2q-6 6-13 6-5 0-8-4-4-4-4-9 0-8 7-16 6-6 12-6h3l3-1q2 0 3 3v4l-1 2-2 1zm12-2q0-13 13-13 12 0 12 13 0-13 12-13 13 0 13 13 0 18-25 37-25-19-25-37zm60 69-6 4q-8 5-18 19l-16 21 16-1h24q5 2 5 5 0 3-2 5l-4 2-4-1h-4l-20 1h-20q-3 0-5-2-2-1-2-4 0-3 3-8l5-6 14-19q9-12 16-18h-31l-4-1q-2-2-2-5 0-6 9-6h9l9 1h10l10-1q13 0 13 6 0 4-5 8zm-60 42-1 7q-1 5-6 5-4 0-7-3-17-15-39-43v35q0 13-6 13-3 0-5-2l-2-4v-5l1-6v-32l-1-8v-8q0-3 2-5 2-2 5-2 3 0 7 6 20 28 40 46v-6l-1-30v-4l-1-5q0-6 7-6 7 0 7 22v35zm-81 12q-3 0-7-8l-4-12-11 1-10 1-7 14q-2 4-6 4l-4-2-2-4 6-15v-3q0-2 4-3l14-23q11-17 14-17 5 0 6 6l3 14 6 30 3 5 1 6q0 3-2 4l-4 2zm-16-45-10 16 6-1h7l-3-15zm-43 42-16 4-16 2q-11 0-11-10l1-14 1-42q0-3 2-5l4-1 4 1q2 2 2 5l-1 43-1 11q11 0 27-5l2-1q3 0 4 2l2 4q0 4-4 6zm-48-24q-3 13-12 21-10 8-22 8-12 0-18-6-5-7-5-19 0-11 5-23 6-12 14-19 7-6 14-6 4 0 11 3 9 4 9 8 0 3-2 5l-4 1-6-2q-5-3-8-3-4 0-11 9-10 12-10 27 0 7 2 10 2 3 9 3 7 0 12-4 5-4 8-12-10 1-18 4l-3 1-4-2-2-4q0-7 16-10l21-1 5 1 1 5q0 3-2 5zm-16 58q10-5 90-5 80 0 90 5m54 49-27-10-18 22 2-28-27-11 28-7 2-29 15 24 28-7-18 22zm-54-49q-10 5-90 5-80 0-90-5m-30 21q10-5 90-5 80 0 90 5-10 5-90 5-80 0-90-5m17 24q10-5 90-5 80 0 90 5-10 5-90 5-80 0-90-5"/></g></svg>