<?xml version="1.0" encoding="UTF-8" standalone="no"?><!--Created with Inkscape (http://www.inkscape.org/)--><svg width="320mm" height="256mm" viewBox="0 0 320 256" version="1.1" sodipodi:docname="comic-ranz_path.svg" inkscape:version="1.1.1 (3bf5ae0d25, 2021-09-20)" xmlns:inkscape="http://www.inkscape.org/namespaces/inkscape" xmlns:sodipodi="http://sodipodi.sourceforge.net/DTD/sodipodi-0.dtd" xmlns="http://www.w3.org/2000/svg" xmlns:svg="http://www.w3.org/2000/svg"><sodipodi:namedview pagecolor="#ffffff" bordercolor="#666666" borderopacity="1.0" inkscape:pageshadow="2" inkscape:pageopacity="0.0" inkscape:pagecheckerboard="0" inkscape:document-units="mm" showgrid="false" units="mm" width="320mm" showguides="false" inkscape:zoom="0.59049862" inkscape:cx="632.51629" inkscape:cy="484.33644" inkscape:window-width="1916" inkscape:window-height="1023" inkscape:window-x="0" inkscape:window-y="0" inkscape:window-maximized="1" inkscape:current-layer="layer1"/><defs/><g inkscape:label="Layer 1" inkscape:groupmode="layer"><path d="M52 31q-4 0-6-4l-2-2-3-1q-6 0-13 9-10 12-10 23 0 4 3 8 3 3 8 3l9-2 6-4 6-3 4 2 2 4q0 3-3 5-12 10-24 10-10 0-17-7-6-7-6-16 0-15 12-31 11-13 23-13h3l3 1q2-2 5-2 4 0 5 5l1 9-1 4q-2 2-5 2zm42 50q-13 0-22-8-10-8-10-20 0-15 9-28 11-14 27-14 15 0 23 7 7 7 7 22 0 15-8 27-10 14-26 14zm4-58q-10 0-17 10-7 9-7 20 0 7 6 11 5 5 14 5 10 0 16-10 6-8 6-19 0-10-4-13-4-4-14-4zm57 20-6 22-2 10q-1 6-6 6-3 0-5-2l-2-4q0-7 3-18l5-17 3-13q2-10 4-13 3-3 6-3 4 0 6 4l4 16 6 25 9-29 2-10q3-7 8-7 5 0 7 8l2 11 6 32 4 15-2 4-4 2q-5 0-7-7l-3-11-4-23-7 19-2 8-4 8q-2 4-6 4-5 0-7-5l-2-8q-4-11-6-24zm98-17-12-1-1 21v20h12q3 0 4 2l2 4-2 4q-1 2-4 2h-15l-9 1-8 1q-3 0-5-2l-1-4 1-4q2-2 5-2l8-1-1-20 1-23-9 1q-3 0-5-2l-1-4 1-5 4-1 14-1 22 2q5 1 5 6 0 3-2 5l-4 1zm56 5q-4 0-6-4l-2-2-3-1q-6 0-13 9-10 12-10 23 0 4 3 8 3 3 8 3l9-2 6-4 6-3 4 2 2 4q0 3-2 5-13 10-25 10-10 0-17-7-6-7-6-16 0-15 12-31 11-13 23-13h3l3 1q2-2 5-2 4 0 5 5l1 9-1 4q-2 2-5 2zm1 72-6 4q-7 5-17 19l-16 21 15-1h24q6 2 6 5 0 3-2 5-2 2-5 2l-4-1h-3l-21 1h-20q-3 0-4-2-3-1-3-4 0-3 3-8l5-6 15-19q8-12 16-18h-31l-5-1q-2-2-2-5 0-6 9-6h9l9 1h11l10-1q13 0 13 6 0 4-6 8zm-60 42-1 7q0 5-6 5-3 0-7-3-17-15-38-43l-1 14 1 11v10q0 13-7 13-3 0-5-2l-1-4v-19l1-7-1-9v-16l-1-8q0-3 2-5l6-2q3 0 7 6 20 28 39 46v-36l-1-4v-5q0-6 6-6 8 0 8 22v7l-1 28zm-80 12q-4 0-7-8-3-5-4-12l-11 1-11 1-7 14q-2 4-5 4-3 0-5-2l-2-4 7-15-1-3q1-2 5-3l14-23q11-17 13-17 5 0 7 6l2 14 7 30 2 5 2 6q0 3-2 4l-4 2zm-17-45-9 16 6-1h6l-3-15zm-42 42-16 4-17 2q-11 0-11-10l1-14 1-42q0-3 2-5l5-1 4 1q2 2 2 5l-1 43-1 11q10 0 27-5l1-1q3 0 5 2l2 4q0 4-4 6zm-49-24q-3 13-12 21-9 8-21 8-12 0-18-6-6-7-6-19 0-11 6-23 5-12 14-19 6-6 13-6l12 3q8 4 8 8l-1 5-5 1-6-2q-4-3-8-3-4 0-11 9-10 12-10 27 0 7 3 10 2 3 9 3 6 0 11-4 6-4 8-12-10 1-17 4l-3 1q-3 0-5-2l-1-4q0-7 16-10l21-1 4 1q2 2 2 5 0 3-3 5z" style="font-weight:bold;font-size:90.3111px;line-height:1.25;font-family:'Comic Sans MS';-inkscape-font-specification:'Comic Sans MS, Bold';text-align:center;text-anchor:middle;fill-opacity:0;stroke:#000000"/></g></svg>