<?xml version="1.0" encoding="UTF-8" standalone="no"?>
<!-- Created with Inkscape (http://www.inkscape.org/) -->

<svg
   width="320mm"
   height="256mm"
   viewBox="0 0 320 256"
   version="1.1"
   id="svg209"
   sodipodi:docname="comic-ranz_path.svg"
   inkscape:version="1.1.1 (3bf5ae0d25, 2021-09-20)"
   xmlns:inkscape="http://www.inkscape.org/namespaces/inkscape"
   xmlns:sodipodi="http://sodipodi.sourceforge.net/DTD/sodipodi-0.dtd"
   xmlns="http://www.w3.org/2000/svg"
   xmlns:svg="http://www.w3.org/2000/svg">
  <sodipodi:namedview
     id="namedview211"
     pagecolor="#ffffff"
     bordercolor="#666666"
     borderopacity="1.0"
     inkscape:pageshadow="2"
     inkscape:pageopacity="0.0"
     inkscape:pagecheckerboard="0"
     inkscape:document-units="mm"
     showgrid="false"
     units="mm"
     width="320mm"
     showguides="false"
     inkscape:zoom="0.64"
     inkscape:cx="330.46875"
     inkscape:cy="456.25"
     inkscape:window-width="1916"
     inkscape:window-height="1023"
     inkscape:window-x="0"
     inkscape:window-y="0"
     inkscape:window-maximized="1"
     inkscape:current-layer="layer1" />
  <defs
     id="defs206" />
  <g
     inkscape:label="Layer 1"
     inkscape:groupmode="layer"
     id="layer1">
    <path
       d="m 51.4493,57.085004 q -3.96875,0 -5.86493,-4.189235 -0.881944,-1.984375 -1.763889,-2.38125 -0.661458,-0.30868 -3.48368,-0.30868 -5.556249,0 -12.832289,8.643054 -10.186457,12.082637 -10.186457,22.621871 0,4.806597 3.219097,8.246179 3.219097,3.439583 7.717013,3.439583 4.365624,0 8.86354,-2.293055 1.5875,-0.837847 6.702776,-4.321527 3.439583,-2.293055 5.203472,-2.293055 2.645833,0 4.497916,1.940277 1.719791,1.807986 1.719791,4.145138 0,2.601736 -2.293055,4.542014 -12.126734,10.230552 -24.69444,10.230552 -9.921874,0 -16.756942,-7.231942 -6.5263876,-6.96736 -6.5263876,-16.404164 0,-14.772567 12.9204836,-30.162495 10.980207,-13.052775 22.445482,-13.052775 1.940278,0 3.48368,0.132291 1.5875,0.132292 2.778125,0.396875 1.940277,-1.89618 4.674305,-1.89618 4.497916,0 5.556249,5.159374 0.749653,3.704166 0.749653,8.643054 0,2.204861 -1.27882,4.012847 -1.675694,2.381249 -4.850693,2.381249 z"
       style="font-weight:bold;font-size:90.3111px;line-height:1.25;font-family:'Comic Sans MS';-inkscape-font-specification:'Comic Sans MS, Bold';text-align:center;text-anchor:middle;fill-opacity:0;stroke:#000000"
       id="path275" />
    <path
       d="m 93.297555,106.73847 q -13.052775,0 -22.224996,-7.496528 -9.789582,-8.025693 -9.789582,-20.769788 0,-14.993054 9.392707,-27.340274 10.539234,-13.890622 26.546523,-13.890622 15.389923,0 23.062843,7.055554 7.67291,7.055554 7.67291,21.21076 0,14.993053 -8.64305,27.163885 -9.96597,14.067013 -26.017355,14.067013 z m 3.924652,-57.546867 q -9.833678,0 -16.845136,9.524998 -6.570485,8.907638 -6.570485,19.755553 0,7.320137 5.688541,11.906248 5.468055,4.409721 13.802428,4.409721 9.701385,0 16.183675,-9.524998 5.95312,-8.687152 5.95312,-19.755553 0,-9.260415 -4.14513,-12.876386 -3.96875,-3.439583 -14.067013,-3.439583 z"
       style="font-weight:bold;font-size:90.3111px;line-height:1.25;font-family:'Comic Sans MS';-inkscape-font-specification:'Comic Sans MS, Bold';text-align:center;text-anchor:middle;fill-opacity:0;stroke:#000000"
       id="path277" />
    <path
       d="m 154.06351,69.211738 q -1.98437,7.143749 -5.55625,21.563539 -0.83784,4.982985 -1.63159,9.921873 -1.80799,6.2618 -6.65868,6.2618 -3.04271,0 -4.8066,-2.07256 -1.4993,-1.76389 -1.4993,-4.18924 0,-7.143749 3.0427,-17.4184 4.54202,-15.389928 4.8948,-17.065622 1.27881,-6.790971 2.60173,-13.581942 1.98438,-9.34861 4.27743,-12.435415 2.33715,-3.130902 5.86493,-3.130902 4.01285,0 5.90903,4.056943 1.76389,3.836458 3.79236,15.698609 1.94028,11.509373 5.77673,24.782635 5.02709,-13.096873 9.34861,-28.751384 l 2.46945,-10.14236 q 2.38125,-6.305902 7.36423,-6.305902 4.8066,0 7.14375,7.320138 0.97014,2.954514 2.07257,11.024304 2.55764,18.785413 6.43819,32.190967 3.92465,13.626041 3.92465,14.816661 0,2.60174 -2.07256,4.36563 -1.94028,1.5875 -4.36563,1.5875 -4.8066,0 -7.14375,-6.87917 l -2.46944,-10.671524 q -2.11667,-7.937499 -4.58611,-22.798261 -1.98438,5.909027 -6.57049,18.564928 l -2.64583,8.113887 q -1.6316,4.806597 -3.39549,7.8934 -2.33715,4.10104 -6.52638,4.10104 -4.14514,0 -6.35,-4.89479 l -2.46945,-8.20208 q -3.43958,-11.288887 -6.17361,-23.724302 z"
       style="font-weight:bold;font-size:90.3111px;line-height:1.25;font-family:'Comic Sans MS';-inkscape-font-specification:'Comic Sans MS, Bold';text-align:center;text-anchor:middle;fill-opacity:0;stroke:#000000"
       id="path279" />
    <path
       d="m 252.66488,51.92563 q -2.29305,0 -12.5677,-1.234722 -0.61737,8.113888 -0.61737,21.563538 l -0.0441,19.79965 q 5.86493,-0.132292 11.95034,-0.132292 2.64584,0 4.36563,1.763889 1.76389,1.763888 1.76389,4.233332 0,2.469445 -1.76389,4.233335 -1.71979,1.71979 -4.36563,1.71979 -2.46944,0 -7.40833,0.13229 -4.93889,0.0882 -7.40833,0.0882 -2.91042,0 -8.73125,0.74965 -5.82083,0.79375 -8.73125,0.79375 -2.64583,0 -4.40972,-1.71979 -1.71979,-1.76389 -1.71979,-4.233336 0,-2.469444 1.71979,-4.233333 1.76389,-1.763888 4.40972,-1.763888 2.99861,0 7.8934,-0.661459 -0.0882,-5.203471 -0.0882,-19.931941 0,-11.994442 0.88194,-22.886454 l -9.56909,0.264583 q -2.64584,0 -4.45382,-1.719791 -1.76389,-1.719792 -1.76389,-4.27743 0,-2.601736 1.76389,-4.233333 1.6316,-1.499305 4.01284,-1.719791 3.88056,-0.352778 13.49375,-0.352778 8.64306,0 22.2691,1.852083 5.42395,0.749653 5.42395,6.085416 0,2.822222 -2.20486,4.453818 -1.80798,1.367014 -4.10104,1.367014 z"
       style="font-weight:bold;font-size:90.3111px;line-height:1.25;font-family:'Comic Sans MS';-inkscape-font-specification:'Comic Sans MS, Bold';text-align:center;text-anchor:middle;fill-opacity:0;stroke:#000000"
       id="path281" />
    <path
       d="m 308.49196,57.085004 q -3.96875,0 -5.86493,-4.189235 -0.88194,-1.984375 -1.76389,-2.38125 -0.66146,-0.30868 -3.48368,-0.30868 -5.55625,0 -12.83229,8.643054 -10.18645,12.082637 -10.18645,22.621871 0,4.806597 3.21909,8.246179 3.2191,3.439583 7.71702,3.439583 4.36562,0 8.86354,-2.293055 1.5875,-0.837847 6.70277,-4.321527 3.43958,-2.293055 5.20347,-2.293055 2.64584,0 4.49792,1.940277 1.71979,1.807986 1.71979,4.145138 0,2.601736 -2.29305,4.542014 -12.12674,10.230552 -24.69444,10.230552 -9.92188,0 -16.75695,-7.231942 -6.52638,-6.96736 -6.52638,-16.404164 0,-14.772567 12.92048,-30.162495 10.98021,-13.052775 22.44548,-13.052775 1.94028,0 3.48368,0.132291 1.5875,0.132292 2.77813,0.396875 1.94027,-1.89618 4.6743,-1.89618 4.49792,0 5.55625,5.159374 0.74965,3.704166 0.74965,8.643054 0,2.204861 -1.27882,4.012847 -1.67569,2.381249 -4.85069,2.381249 z"
       style="font-weight:bold;font-size:90.3111px;line-height:1.25;font-family:'Comic Sans MS';-inkscape-font-specification:'Comic Sans MS, Bold';text-align:center;text-anchor:middle;fill-opacity:0;stroke:#000000"
       id="path283" />
    <path
       d="m 78.921865,217.46658 q -2.38125,0 -4.365625,-1.85209 -13.361456,-12.52361 -29.368745,-17.3743 0.485069,12.83229 0.485069,14.2434 0,2.51354 -1.763888,4.27743 -1.763889,1.71979 -4.409722,1.71979 -2.645833,0 -4.409721,-1.71979 -1.763889,-1.76389 -1.763889,-4.27743 0,-3.30729 0.08819,-9.87778 0.08819,-6.61458 0.08819,-9.92187 l 0.08819,-35.58645 q 0,-2.86632 1.719791,-5.20347 2.248958,-2.99861 6.217707,-2.68993 10.715623,0.79375 10.980207,0.83784 6.17361,0.74966 10.495137,2.95452 18.829511,9.4809 18.829511,23.50381 0,5.77674 -3.96875,10.23056 -3.924652,4.40972 -11.818053,7.45243 11.685762,6.52638 17.594789,13.31735 1.543402,1.76389 1.543402,3.92466 0,2.46944 -1.852083,4.27743 -1.852083,1.76389 -4.409721,1.76389 z M 50.65555,161.99228 q -0.352778,-0.0441 -5.159374,-0.35278 v 23.41562 q 1.10243,0.0441 1.940277,0.0441 10.803818,0 16.007289,-2.68993 2.248958,-1.14653 4.101041,-3.04271 1.89618,-1.89618 1.89618,-2.86632 0,-4.93889 -6.261804,-9.525 -5.953124,-4.32152 -12.523609,-4.98298 z"
       style="font-weight:bold;font-size:90.3111px;line-height:1.25;font-family:'Comic Sans MS';-inkscape-font-specification:'Comic Sans MS, Bold';text-align:center;text-anchor:middle;fill-opacity:0;stroke:#000000"
       id="path285" />
    <path
       d="m 142.20136,218.26032 q -3.48368,-0.13229 -7.01145,-8.20208 -2.33716,-5.20347 -4.01285,-11.99444 -3.26319,0.48507 -10.67153,0.97014 -6.96736,0.48507 -10.67152,1.14653 -2.02847,4.85069 -7.05556,14.59617 -1.94027,3.175 -5.379854,3.175 -2.425347,0 -4.365624,-1.63159 -1.940278,-1.6757 -1.940278,-4.23334 0,-2.24895 6.438194,-15.25763 -0.617361,-1.36702 -0.529167,-2.55764 0.176389,-2.11667 4.277429,-3.30729 6.2618,-10.84792 13.93472,-22.48958 11.0243,-16.71285 13.58194,-16.71285 4.85069,0 6.48229,5.86493 0.88194,4.71841 2.77813,14.15521 2.68993,12.7 6.57048,29.06006 0.30868,1.23473 2.24896,5.82084 1.5875,3.79236 1.5875,5.68854 0,2.55764 -1.94028,4.27743 -1.89618,1.71979 -4.32153,1.63159 z M 125.7531,173.01658 q -3.43958,5.90903 -9.4809,16.09549 1.98438,-0.44098 6.17361,-0.70556 4.93889,-0.30868 6.21771,-0.48507 -1.05833,-5.73264 -2.91042,-14.90486 z"
       style="font-weight:bold;font-size:90.3111px;line-height:1.25;font-family:'Comic Sans MS';-inkscape-font-specification:'Comic Sans MS, Bold';text-align:center;text-anchor:middle;fill-opacity:0;stroke:#000000"
       id="path287" />
    <path
       d="m 222.85517,206.08949 q 0,2.20486 -0.74966,6.96736 -0.88194,5.68854 -6.43819,5.68854 -3.0868,0 -6.96736,-3.48368 -16.97743,-15.30173 -38.32048,-42.90659 -0.26458,11.46528 -0.26458,14.06702 0,3.48368 0.13229,10.49513 0.17639,7.01146 0.17639,10.49514 0,13.00868 -6.35,13.00868 -3.2191,0 -5.15938,-1.98438 -1.71979,-1.76388 -1.71979,-4.27743 0,-1.76388 0.26459,-5.33576 0.30868,-3.57187 0.30868,-5.33576 0,-2.60174 0.17639,-7.80521 0.17638,-5.20347 0.17638,-7.80521 0,-2.77812 -0.13229,-8.37847 -0.13229,-5.60034 -0.13229,-8.37847 0,-2.64583 -0.52917,-7.8934 -0.52916,-5.24757 -0.52916,-7.8934 0,-2.64583 2.24896,-4.7184 2.29305,-2.07257 5.20347,-2.07257 3.26319,0 7.23194,5.64444 20.02014,28.575 39.51111,46.61076 0.0441,-1.41111 0.0441,-6.70278 0,-21.73993 -0.44097,-29.32465 -0.0882,-1.27882 -0.57326,-4.7625 -0.44098,-3.0868 -0.44098,-4.85069 0,-6.08542 6.4382,-6.08542 7.18784,0 7.18784,22.1809 0,0.48507 -0.0882,6.96736 -0.26458,22.40139 -0.26458,27.86944 z"
       style="font-weight:bold;font-size:90.3111px;line-height:1.25;font-family:'Comic Sans MS';-inkscape-font-specification:'Comic Sans MS, Bold';text-align:center;text-anchor:middle;fill-opacity:0;stroke:#000000"
       id="path289" />
    <path
       d="m 282.73917,164.24124 q -2.42534,1.4993 -5.95312,3.83645 -7.45243,5.51216 -17.63889,18.96181 -7.8052,10.49513 -15.61041,21.03437 l -0.17639,0.22048 q 3.2191,-0.0882 15.52222,-0.61736 9.65729,-0.44097 15.38993,-0.44097 6.3059,0 8.55486,0.48507 5.29166,1.14653 5.46805,5.07118 0.13229,2.91042 -2.02847,4.58611 -1.85208,1.45521 -4.45382,1.45521 -1.27882,0 -3.83646,-0.17639 -2.55763,-0.13229 -3.83645,-0.13229 -6.70278,0 -20.15243,0.30868 -13.40555,0.35278 -20.10833,0.35278 -2.86632,0 -4.7184,-1.45521 -2.07257,-1.5875 -2.07257,-4.45382 0,-3.175 2.77812,-7.54062 0.88195,-1.36702 4.98299,-6.65868 7.23194,-9.65729 14.50798,-19.27049 8.64306,-11.11249 16.18368,-17.99166 -6.87917,0.48507 -10.49514,0.48507 h -17.81527 q -0.48507,0 -1.41111,0.0882 -0.92604,0.0441 -1.41111,0.0441 -2.60174,0 -4.40973,-1.4993 -2.02847,-1.6757 -2.02847,-4.49792 0,-6.04132 8.95174,-6.04132 3.0427,0 9.08402,0.39688 6.04132,0.35277 9.08403,0.35277 3.39549,0 10.14236,-0.17639 6.79097,-0.17638 10.18646,-0.17638 13.14097,0 13.14097,5.73263 0,3.66007 -5.82084,7.71702 z"
       style="font-weight:bold;font-size:90.3111px;line-height:1.25;font-family:'Comic Sans MS';-inkscape-font-specification:'Comic Sans MS, Bold';text-align:center;text-anchor:middle;fill-opacity:0;stroke:#000000"
       id="path291" />
  </g>
</svg>
