<?xml version="1.0" encoding="UTF-8" standalone="no"?>
<!-- Created with Inkscape (http://www.inkscape.org/) -->

<svg width="320mm" height="256mm" viewBox="0 0 320 256" version="1.1" id="svg209" sodipodi:docname="comic-ranz_path.svg" inkscape:version="1.1.1 (3bf5ae0d25, 2021-09-20)"
   xmlns:inkscape="http://www.inkscape.org/namespaces/inkscape"
   xmlns:sodipodi="http://sodipodi.sourceforge.net/DTD/sodipodi-0.dtd"
   xmlns="http://www.w3.org/2000/svg"
   xmlns:svg="http://www.w3.org/2000/svg">
   <sodipodi:namedview id="namedview211" pagecolor="#ffffff" bordercolor="#666666" borderopacity="1.0" inkscape:pageshadow="2" inkscape:pageopacity="0.0" inkscape:pagecheckerboard="0" inkscape:document-units="mm" showgrid="false" units="mm" width="320mm" showguides="false" inkscape:zoom="0.59049862" inkscape:cx="632.51629" inkscape:cy="484.33644" inkscape:window-width="1916" inkscape:window-height="1023" inkscape:window-x="0" inkscape:window-y="0" inkscape:window-maximized="1" inkscape:current-layer="layer1" />
   <defs id="defs206" />
   <g inkscape:label="Layer 1" inkscape:groupmode="layer" id="layer1">
      <path d="m 51.978467,31.155797 q -3.96875,0 -5.86493,-4.189235 -0.881944,-1.984375 -1.763889,-2.38125 -0.661458,-0.30868 -3.48368,-0.30868 -5.556249,0 -12.832289,8.643054 -10.186457,12.082637 -10.186457,22.621871 0,4.806597 3.219097,8.24618 3.219097,3.439582 7.717013,3.439582 4.365624,0 8.86354,-2.293055 1.5875,-0.837847 6.702776,-4.321527 3.439583,-2.293055 5.203472,-2.293055 2.645833,0 4.497916,1.940277 1.719791,1.807986 1.719791,4.145139 0,2.601735 -2.293055,4.542013 -12.126734,10.230554 -24.69444,10.230554 -9.921874,0 -16.756942,-7.231944 -6.5263879,-6.96736 -6.5263879,-16.404164 0,-14.772567 12.9204839,-30.162495 10.980207,-13.052775 22.445482,-13.052775 1.940278,0 3.48368,0.132291 1.5875,0.132292 2.778125,0.396875 1.940277,-1.89618 4.674305,-1.89618 4.497916,0 5.556249,5.159374 0.749653,3.704166 0.749653,8.643054 0,2.204861 -1.27882,4.012847 -1.675694,2.381249 -4.850693,2.381249 z" style="font-weight:bold;font-size:90.3111px;line-height:1.25;font-family:'Comic Sans MS';-inkscape-font-specification:'Comic Sans MS, Bold';text-align:center;text-anchor:middle;fill-opacity:0;stroke:#000000" id="path11515" />
      <path d="m 93.826722,80.809261 q -13.052775,0 -22.224996,-7.496526 -9.789582,-8.025693 -9.789582,-20.769788 0,-14.993053 9.392707,-27.340274 10.539234,-13.890622 26.546523,-13.890622 15.389926,0 23.062846,7.055554 7.67291,7.055555 7.67291,21.210761 0,14.993053 -8.64305,27.163884 -9.96597,14.067011 -26.017358,14.067011 z m 3.924652,-57.546865 q -9.833678,0 -16.845136,9.524998 -6.570485,8.907638 -6.570485,19.755553 0,7.320137 5.688541,11.906248 5.468055,4.409721 13.802428,4.409721 9.701388,0 16.183678,-9.524998 5.95312,-8.687152 5.95312,-19.755552 0,-9.260416 -4.14513,-12.876387 -3.96875,-3.439583 -14.067016,-3.439583 z" style="font-weight:bold;font-size:90.3111px;line-height:1.25;font-family:'Comic Sans MS';-inkscape-font-specification:'Comic Sans MS, Bold';text-align:center;text-anchor:middle;fill-opacity:0;stroke:#000000" id="path11517" />
      <path d="m 154.59268,43.282532 q -1.98437,7.143748 -5.55625,21.563538 -0.83784,4.982985 -1.63159,9.921873 -1.80799,6.261805 -6.65868,6.261805 -3.04271,0 -4.8066,-2.07257 -1.4993,-1.763888 -1.4993,-4.189235 0,-7.143749 3.0427,-17.4184 4.54202,-15.389928 4.8948,-17.065622 1.27881,-6.790971 2.60173,-13.581942 1.98438,-9.34861 4.27743,-12.435415 2.33715,-3.130902 5.86493,-3.130902 4.01285,0 5.90903,4.056944 1.76389,3.836457 3.79236,15.698608 1.94028,11.509373 5.77673,24.782635 5.02709,-13.096873 9.34861,-28.751384 l 2.46945,-10.14236 q 2.38125,-6.305901 7.36423,-6.305901 4.8066,0 7.14375,7.320137 0.97014,2.954514 2.07257,11.024304 2.55764,18.785414 6.43819,32.190967 3.92465,13.626039 3.92465,14.816664 0,2.601736 -2.07256,4.365624 -1.94028,1.5875 -4.36563,1.5875 -4.8066,0 -7.14375,-6.879165 l -2.46944,-10.671526 q -2.11667,-7.937499 -4.58611,-22.79826 -1.98438,5.909026 -6.57049,18.564927 l -2.64583,8.113888 q -1.6316,4.806596 -3.39549,7.893401 -2.33715,4.101041 -6.52638,4.101041 -4.14514,0 -6.35,-4.894791 l -2.46945,-8.202082 q -3.43958,-11.288887 -6.17361,-23.724301 z" style="font-weight:bold;font-size:90.3111px;line-height:1.25;font-family:'Comic Sans MS';-inkscape-font-specification:'Comic Sans MS, Bold';text-align:center;text-anchor:middle;fill-opacity:0;stroke:#000000" id="path11519" />
      <path d="m 253.19405,25.996423 q -2.29305,0 -12.5677,-1.234722 -0.61737,8.113888 -0.61737,21.563538 l -0.0441,19.79965 q 5.86493,-0.132292 11.95034,-0.132292 2.64584,0 4.36563,1.763889 1.76389,1.763888 1.76389,4.233332 0,2.469445 -1.76389,4.233333 -1.71979,1.719792 -4.36563,1.719792 -2.46944,0 -7.40833,0.132291 -4.93889,0.08819 -7.40833,0.08819 -2.91042,0 -8.73125,0.749652 -5.82083,0.79375 -8.73125,0.79375 -2.64583,0 -4.40972,-1.719791 -1.71979,-1.763889 -1.71979,-4.233333 0,-2.469444 1.71979,-4.233333 1.76389,-1.763888 4.40972,-1.763888 2.99861,0 7.8934,-0.661458 -0.0882,-5.203472 -0.0882,-19.931942 0,-11.994442 0.88194,-22.886454 l -9.56909,0.264583 q -2.64584,0 -4.45382,-1.719791 -1.76389,-1.719792 -1.76389,-4.27743 0,-2.601736 1.76389,-4.233333 1.6316,-1.499305 4.01284,-1.719791 3.88056,-0.352778 13.49375,-0.352778 8.64306,0 22.2691,1.852083 5.42395,0.749653 5.42395,6.085416 0,2.822222 -2.20486,4.453819 -1.80798,1.367013 -4.10104,1.367013 z" style="font-weight:bold;font-size:90.3111px;line-height:1.25;font-family:'Comic Sans MS';-inkscape-font-specification:'Comic Sans MS, Bold';text-align:center;text-anchor:middle;fill-opacity:0;stroke:#000000" id="path11521" />
      <path d="m 309.02113,31.155797 q -3.96875,0 -5.86493,-4.189235 -0.88194,-1.984375 -1.76389,-2.38125 -0.66146,-0.30868 -3.48368,-0.30868 -5.55625,0 -12.83229,8.643054 -10.18645,12.082637 -10.18645,22.621871 0,4.806597 3.21909,8.24618 3.2191,3.439582 7.71702,3.439582 4.36562,0 8.86354,-2.293055 1.5875,-0.837847 6.70277,-4.321527 3.43958,-2.293055 5.20347,-2.293055 2.64584,0 4.49792,1.940277 1.71979,1.807986 1.71979,4.145139 0,2.601735 -2.29305,4.542013 -12.12674,10.230554 -24.69444,10.230554 -9.92188,0 -16.75695,-7.231944 -6.52638,-6.96736 -6.52638,-16.404164 0,-14.772567 12.92048,-30.162495 10.98021,-13.052775 22.44548,-13.052775 1.94028,0 3.48368,0.132291 1.5875,0.132292 2.77813,0.396875 1.94027,-1.89618 4.6743,-1.89618 4.49792,0 5.55625,5.159374 0.74965,3.704166 0.74965,8.643054 0,2.204861 -1.27882,4.012847 -1.67569,2.381249 -4.85069,2.381249 z" style="font-weight:bold;font-size:90.3111px;line-height:1.25;font-family:'Comic Sans MS';-inkscape-font-specification:'Comic Sans MS, Bold';text-align:center;text-anchor:middle;fill-opacity:0;stroke:#000000" id="path11523" />
      <path d="m 310.12208,102.93992 q -2.42535,1.49931 -5.95313,3.83646 -7.45243,5.51215 -17.63888,18.9618 -7.80521,10.49514 -15.61042,21.03437 l -0.17639,0.22049 q 3.2191,-0.0882 15.52222,-0.61736 9.65729,-0.44097 15.38993,-0.44097 6.3059,0 8.55486,0.48507 5.29167,1.14652 5.46805,5.07117 0.1323,2.91042 -2.02847,4.58612 -1.85208,1.4552 -4.45382,1.4552 -1.27882,0 -3.83645,-0.17639 -2.55764,-0.13229 -3.83646,-0.13229 -6.70278,0 -20.15243,0.30868 -13.40555,0.35278 -20.10833,0.35278 -2.86632,0 -4.7184,-1.45521 -2.07257,-1.5875 -2.07257,-4.45382 0,-3.175 2.77812,-7.54062 0.88195,-1.36701 4.98299,-6.65868 7.23194,-9.65729 14.50798,-19.27048 8.64306,-11.1125 16.18368,-17.99167 -6.87916,0.48507 -10.49514,0.48507 h -17.81527 q -0.48507,0 -1.41111,0.0882 -0.92604,0.0441 -1.41111,0.0441 -2.60174,0 -4.40972,-1.49931 -2.02848,-1.675694 -2.02848,-4.497916 0,-6.041318 8.95174,-6.041318 3.04271,0 9.08402,0.396875 6.04132,0.352777 9.08403,0.352777 3.39549,0 10.14236,-0.176388 6.79097,-0.176389 10.18646,-0.176389 13.14097,0 13.14097,5.732638 0,3.660069 -5.82083,7.717011 z" style="font-weight:bold;font-size:90.3111px;line-height:1.25;font-family:'Comic Sans MS';-inkscape-font-specification:'Comic Sans MS, Bold';text-align:center;text-anchor:middle;fill-opacity:0;stroke:#000000" id="path11704" />
      <path d="m 250.23806,144.78818 q 0,2.20486 -0.74965,6.96736 -0.88195,5.68854 -6.4382,5.68854 -3.0868,0 -6.96736,-3.48368 -16.97742,-15.30173 -38.32048,-42.90659 -0.26458,11.46527 -0.26458,14.06701 0,3.48368 0.13229,10.49514 0.17639,7.01145 0.17639,10.49513 0,13.00868 -6.35,13.00868 -3.21909,0 -5.15937,-1.98437 -1.71979,-1.76389 -1.71979,-4.27743 0,-1.76389 0.26458,-5.33576 0.30868,-3.57188 0.30868,-5.33577 0,-2.60173 0.17639,-7.8052 0.17639,-5.20348 0.17639,-7.80521 0,-2.77813 -0.13229,-8.37847 -0.13229,-5.60035 -0.13229,-8.37847 0,-2.64584 -0.52917,-7.8934 -0.52917,-5.247573 -0.52917,-7.893406 0,-2.645833 2.24896,-4.718402 2.29306,-2.072569 5.20347,-2.072569 3.2632,0 7.23194,5.644443 20.02014,28.574994 39.51111,46.610754 0.0441,-1.41111 0.0441,-6.70277 0,-21.73993 -0.44098,-29.32465 -0.0882,-1.27882 -0.57326,-4.762501 -0.44097,-3.086805 -0.44097,-4.850694 0,-6.085416 6.43819,-6.085416 7.18785,0 7.18785,22.180901 0,0.48507 -0.0882,6.96736 -0.26458,22.40138 -0.26458,27.86944 z" style="font-weight:bold;font-size:90.3111px;line-height:1.25;font-family:'Comic Sans MS';-inkscape-font-specification:'Comic Sans MS, Bold';text-align:center;text-anchor:middle;fill-opacity:0;stroke:#000000" id="path11702" />
      <path d="m 169.58426,156.95901 q -3.48368,-0.13229 -7.01145,-8.20208 -2.33715,-5.20347 -4.01285,-11.99444 -3.26319,0.48506 -10.67152,0.97013 -6.96736,0.48507 -10.67153,1.14653 -2.02847,4.8507 -7.05556,14.59618 -1.94027,3.175 -5.37986,3.175 -2.42534,0 -4.36562,-1.6316 -1.94028,-1.67569 -1.94028,-4.23333 0,-2.24896 6.4382,-15.25764 -0.61736,-1.36701 -0.52917,-2.55764 0.17639,-2.11666 4.27743,-3.30729 6.2618,-10.84791 13.93472,-22.48958 11.0243,-16.712841 13.58194,-16.712841 4.8507,0 6.48229,5.86493 0.88195,4.718401 2.77813,14.155211 2.68993,12.69999 6.57048,29.06006 0.30868,1.23472 2.24896,5.82083 1.5875,3.79236 1.5875,5.68854 0,2.55764 -1.94028,4.27743 -1.89618,1.71979 -4.32153,1.6316 z M 153.136,111.71527 q -3.43958,5.90902 -9.4809,16.09548 1.98438,-0.44097 6.17361,-0.70555 4.93889,-0.30869 6.21771,-0.48507 -1.05833,-5.73264 -2.91042,-14.90486 z" style="font-weight:bold;font-size:90.3111px;line-height:1.25;font-family:'Comic Sans MS';-inkscape-font-specification:'Comic Sans MS, Bold';text-align:center;text-anchor:middle;fill-opacity:0;stroke:#000000" id="path11700" />
      <path d="m 110.67038,153.9604 q -5.20347,2.29305 -16.09548,4.10104 -9.965971,1.67569 -16.360067,1.67569 -10.803818,0 -10.803818,-9.4809 0,0.74966 0.881945,-13.97881 1.146527,-19.1382 1.146527,-42.597914 0,-2.513541 1.719792,-4.27743 1.763888,-1.763888 4.409721,-1.763888 2.645833,0 4.409722,1.763888 1.763888,1.763889 1.763888,4.27743 0,23.503814 -1.190625,43.303464 -0.396875,3.52778 -0.837847,10.80382 10.45104,-0.17639 26.811102,-5.11528 1.01424,-0.30868 1.94028,-0.30868 2.77813,0 4.49792,2.02847 1.5434,1.80799 1.5434,4.05695 0,3.79236 -3.83646,5.51215 z" style="font-weight:bold;font-size:90.3111px;line-height:1.25;font-family:'Comic Sans MS';-inkscape-font-specification:'Comic Sans MS, Bold';text-align:center;text-anchor:middle;fill-opacity:0;stroke:#000000" id="path11698" />

      <path d="m 62.207543,129.70693 q -2.99861,13.14097 -12.082636,21.03437 -9.216318,7.9375 -21.607636,7.9375 -11.729859,0 -17.594788,-6.17361 -5.8649301,-6.21771 -5.8649301,-18.60902 0,-11.28889 5.5562491,-23.15104 5.556249,-11.862152 14.287498,-19.226387 6.129513,-5.159375 13.14097,-5.159375 4.27743,0 11.641664,3.086806 8.731249,3.660068 8.731249,7.805207 0,2.381249 -1.807986,4.277429 -1.807986,1.85208 -4.453819,1.85208 -1.322916,0 -5.864929,-2.46944 -4.497916,-2.513542 -8.246179,-2.513542 -3.96875,0 -10.715624,8.554862 -9.833678,12.43541 -9.833678,26.9434 0,7.36423 2.160763,10.01006 2.293055,2.77813 8.86354,2.77813 6.746874,0 11.862151,-3.83646 5.423958,-4.05694 8.025693,-11.81805 -10.230554,0.79375 -17.815275,4.18923 -1.367013,0.61736 -2.734027,0.61736 -2.734027,0 -4.542013,-2.02847 -1.631597,-1.80798 -1.631597,-4.10104 0,-6.74687 15.963192,-9.4368 8.995832,-1.49931 20.990274,-1.49931 2.645833,0 4.409722,1.71979 1.807985,1.71979 1.807985,4.23334 0,3.21909 -2.645833,4.98298 z" style="font-weight:bold;font-size:90.3111px;line-height:1.25;font-family:'Comic Sans MS';-inkscape-font-specification:'Comic Sans MS, Bold';text-align:center;text-anchor:middle;fill-opacity:0;stroke:#000000" id="path11696" />
   </g>
</svg>
