<?xml version="1.0" encoding="UTF-8" standalone="no"?>
<!-- Created with Inkscape (http://www.inkscape.org/) -->

<svg
   width="320mm"
   height="256mm"
   viewBox="0 0 320 256"
   version="1.1"
   id="svg209"
   sodipodi:docname="comic-ranz_path.svg"
   inkscape:version="1.1.1 (3bf5ae0d25, 2021-09-20)"
   xmlns:inkscape="http://www.inkscape.org/namespaces/inkscape"
   xmlns:sodipodi="http://sodipodi.sourceforge.net/DTD/sodipodi-0.dtd"
   xmlns="http://www.w3.org/2000/svg"
   xmlns:svg="http://www.w3.org/2000/svg">
  <sodipodi:namedview
     id="namedview211"
     pagecolor="#ffffff"
     bordercolor="#666666"
     borderopacity="1.0"
     inkscape:pageshadow="2"
     inkscape:pageopacity="0.0"
     inkscape:pagecheckerboard="0"
     inkscape:document-units="mm"
     showgrid="false"
     units="mm"
     width="320mm"
     showguides="false"
     inkscape:zoom="0.5"
     inkscape:cx="-113"
     inkscape:cy="308"
     inkscape:window-width="1916"
     inkscape:window-height="1023"
     inkscape:window-x="0"
     inkscape:window-y="0"
     inkscape:window-maximized="1"
     inkscape:current-layer="layer1"
     inkscape:snap-nodes="false" />
  <defs
     id="defs206">
    <inkscape:path-effect
       effect="bspline"
       id="path-effect2409"
       is_visible="true"
       lpeversion="1"
       weight="35.1333"
       steps="1"
       helper_size="9"
       apply_no_weight="true"
       apply_with_weight="true"
       only_selected="true" />
    <inkscape:path-effect
       effect="bspline"
       id="path-effect1577"
       is_visible="true"
       lpeversion="1"
       weight="33.333333"
       steps="1"
       helper_size="0"
       apply_no_weight="true"
       apply_with_weight="true"
       only_selected="false" />
    <inkscape:path-effect
       effect="bspline"
       id="path-effect1558"
       is_visible="true"
       lpeversion="1"
       weight="33.333333"
       steps="1"
       helper_size="0"
       apply_no_weight="true"
       apply_with_weight="true"
       only_selected="false" />
    <inkscape:path-effect
       effect="bspline"
       id="path-effect1028"
       is_visible="true"
       lpeversion="1"
       weight="33.333333"
       steps="1"
       helper_size="0"
       apply_no_weight="true"
       apply_with_weight="true"
       only_selected="false" />
    <inkscape:path-effect
       effect="mirror_symmetry"
       start_point="146.19958,186.92721"
       end_point="146.19958,239.29176"
       center_point="146.19958,213.10948"
       id="path-effect15331"
       is_visible="true"
       lpeversion="1.1"
       mode="free"
       discard_orig_path="false"
       fuse_paths="false"
       oposite_fuse="false"
       split_items="false"
       split_open="false" />
    <inkscape:path-effect
       effect="bspline"
       id="path-effect15327"
       is_visible="true"
       lpeversion="1"
       weight="33.333333"
       steps="2"
       helper_size="0"
       apply_no_weight="true"
       apply_with_weight="true"
       only_selected="false" />
    <inkscape:path-effect
       effect="mirror_symmetry"
       start_point="146.19958,186.92721"
       end_point="146.19958,239.29176"
       center_point="146.19958,213.10948"
       id="path-effect14855"
       is_visible="true"
       lpeversion="1.1"
       mode="free"
       discard_orig_path="false"
       fuse_paths="true"
       oposite_fuse="false"
       split_items="false"
       split_open="false" />
    <inkscape:path-effect
       effect="bspline"
       id="path-effect14853"
       is_visible="true"
       lpeversion="1"
       weight="33"
       steps="1"
       helper_size="1"
       apply_no_weight="true"
       apply_with_weight="true"
       only_selected="false" />
    <inkscape:path-effect
       effect="mirror_symmetry"
       start_point="139.30703,195.92696"
       end_point="139.30703,243.7558"
       center_point="139.30703,219.84138"
       id="path-effect14177"
       is_visible="true"
       lpeversion="1.1"
       mode="free"
       discard_orig_path="false"
       fuse_paths="false"
       oposite_fuse="false"
       split_items="false"
       split_open="false" />
    <inkscape:path-effect
       effect="bspline"
       id="path-effect14175"
       is_visible="true"
       lpeversion="1"
       weight="33.333333"
       steps="2"
       helper_size="0"
       apply_no_weight="true"
       apply_with_weight="true"
       only_selected="false" />
    <inkscape:path-effect
       effect="bspline"
       id="path-effect12855"
       is_visible="true"
       lpeversion="1"
       weight="33.333333"
       steps="2"
       helper_size="0"
       apply_no_weight="true"
       apply_with_weight="true"
       only_selected="false" />
    <inkscape:path-effect
       effect="bspline"
       id="path-effect11299"
       is_visible="true"
       lpeversion="1"
       weight="33.333333"
       steps="2"
       helper_size="0"
       apply_no_weight="true"
       apply_with_weight="true"
       only_selected="false" />
  </defs>
  <g
     inkscape:label="Layer 1"
     inkscape:groupmode="layer"
     id="layer1">
    <path
       style="fill:none;stroke:#000000;stroke-width:1;stroke-linecap:butt;stroke-linejoin:miter;stroke-miterlimit:4;stroke-dasharray:none;stroke-opacity:1"
       d="m 146.19958,239.48819 c -2.66434,-4.73651 -5.41527,-9.61728 -9.96917,-14.6446 -4.56836,-5.04327 -11.16401,-10.48619 -13.27215,-17.51366 -2.10813,-7.02748 0.22846,-15.7805 4.21943,-19.77328 3.99097,-3.99279 9.85364,-3.3797 13.2725,-1.58682 3.41886,1.79287 4.60175,4.87305 5.74939,7.86143 1.14764,-2.98838 2.33053,-6.06856 5.74939,-7.86143 3.41886,-1.79288 9.28153,-2.40597 13.2725,1.58682 3.99097,3.99278 6.32756,12.7458 4.21943,19.77328 -2.10814,7.02747 -8.70379,12.47039 -13.27215,17.51366 -4.5539,5.02732 -7.30483,9.90809 -9.96917,14.6446 z"
       id="path14851"
       inkscape:path-effect="#path-effect14853;#path-effect14855"
       inkscape:original-d="m 146.22495,239.53329 c -2.67193,-4.75081 -5.42585,-9.64661 -8.09978,-14.39942 -6.46321,-5.33345 -13.0589,-10.77631 -19.58852,-16.165 2.31367,-8.66637 4.65125,-17.41912 6.94067,-26.00018 5.69125,0.59606 11.55392,1.20915 17.24317,1.80321 1.1491,2.99059 2.33199,6.07077 3.47909,9.05936"
       sodipodi:nodetypes="ccsccc"
       transform="matrix(0.8825538,-0.46884022,0.46800201,0.88413448,-186.35504,-78.307159)" />
    <path
       d="m 100.87158,37.290059 q -1.86035,0 -2.749184,-1.963703 -0.413411,-0.930175 -0.826822,-1.11621 -0.310059,-0.144694 -1.632974,-0.144694 -2.604491,0 -6.015133,4.05143 -4.774898,5.663732 -4.774898,10.603996 0,2.25309 1.50895,3.865394 1.508951,1.612303 3.617348,1.612303 2.046385,0 4.154782,-1.074869 0.74414,-0.39274 3.141925,-2.025714 1.612303,-1.074869 2.439125,-1.074869 1.240231,0 2.108401,0.909504 0.80615,0.847493 0.80615,1.943033 0,1.219563 -1.07487,2.129067 -5.684404,4.795569 -11.575513,4.795569 -4.650875,0 -7.854812,-3.389971 -3.059242,-3.265948 -3.059242,-7.689447 0,-6.924637 6.056473,-14.138662 5.146969,-6.118485 10.521314,-6.118485 0.909504,0 1.632974,0.06201 0.74414,0.06201 1.302245,0.186035 0.909504,-0.888834 2.191081,-0.888834 2.10839,0 2.60449,2.418455 0.3514,1.736327 0.3514,4.05143 0,1.033527 -0.59945,1.88102 -0.78548,1.11621 -2.27376,1.11621 z"
       id="path842"
       style="font-weight:bold;font-size:42.3333px;line-height:1.25;font-family:'Comic Sans MS';-inkscape-font-specification:'Comic Sans MS, Bold';fill:none;stroke:#000000;stroke-width:1;stroke-miterlimit:4;stroke-dasharray:none" />
    <path
       d="m 120.48794,60.565107 q -6.11849,0 -10.41796,-3.513995 -4.58887,-3.762041 -4.58887,-9.735832 0,-7.02799 4.40283,-12.815746 4.94027,-6.511225 12.44368,-6.511225 7.21402,0 10.8107,3.307289 3.59668,3.307289 3.59668,9.942538 0,7.027989 -4.05143,12.733063 -4.67155,6.593908 -12.19563,6.593908 z m 1.83968,-26.975077 q -4.60954,0 -7.89615,4.46484 -3.07992,4.175453 -3.07992,9.26041 0,3.431312 2.6665,5.58105 2.56315,2.067056 6.46989,2.067056 4.54752,0 7.58609,-4.46484 2.79053,-4.0721 2.79053,-9.26041 0,-4.340817 -1.94303,-6.035803 -1.86035,-1.612303 -6.59391,-1.612303 z"
       id="path844"
       style="font-weight:bold;font-size:42.3333px;line-height:1.25;font-family:'Comic Sans MS';-inkscape-font-specification:'Comic Sans MS, Bold';fill:none;stroke:#000000;stroke-width:1;stroke-miterlimit:4;stroke-dasharray:none" />
    <path
       d="m 148.97196,42.974463 q -0.93017,3.34863 -2.60449,10.107902 -0.39274,2.335773 -0.76481,4.650876 -0.84749,2.935219 -3.12125,2.935219 -1.42627,0 -2.25309,-0.971516 -0.7028,-0.826823 -0.7028,-1.963703 0,-3.348631 1.42627,-8.16487 2.12907,-7.214025 2.29443,-7.999506 0.59945,-3.183266 1.21956,-6.366532 0.93018,-4.382158 2.00505,-5.829097 1.09554,-1.46761 2.74918,-1.46761 1.88102,0 2.76986,1.901692 0.82682,1.798338 1.77766,7.358718 0.90951,5.395016 2.70785,11.616853 2.35644,-6.139155 4.38215,-13.477203 l 1.15756,-4.754228 q 1.11621,-2.95589 3.45198,-2.95589 2.25309,0 3.34863,3.431313 0.45475,1.384927 0.97152,5.167639 1.19889,8.805657 3.0179,15.089507 1.83968,6.387202 1.83968,6.945307 0,1.219563 -0.97152,2.046385 -0.9095,0.74414 -2.04639,0.74414 -2.25309,0 -3.34863,-3.224607 l -1.15755,-5.002275 q -0.99218,-3.7207 -2.14973,-10.686678 -0.93018,2.769855 -3.07992,8.702305 l -1.24023,3.803383 q -0.76481,2.25309 -1.59163,3.700029 -1.09554,1.922362 -3.05925,1.922362 -1.94303,0 -2.97656,-2.294432 l -1.15755,-3.844723 q -1.6123,-5.291663 -2.89388,-11.12076 z"
       id="path846"
       style="font-weight:bold;font-size:42.3333px;line-height:1.25;font-family:'Comic Sans MS';-inkscape-font-specification:'Comic Sans MS, Bold';fill:none;stroke:#000000;stroke-width:1;stroke-miterlimit:4;stroke-dasharray:none" />
    <path
       d="m 195.19133,34.871604 q -1.07487,0 -5.89111,-0.578775 -0.28939,3.803382 -0.28939,10.107902 l -0.0207,9.28108 q 2.74919,-0.06201 5.60172,-0.06201 1.24024,0 2.04639,0.826822 0.82682,0.826822 0.82682,1.984374 0,1.157551 -0.82682,1.984373 -0.80615,0.806152 -2.04639,0.806152 -1.15755,0 -3.47265,0.06201 -2.3151,0.04134 -3.47265,0.04134 -1.36426,0 -4.09277,0.351399 -2.72852,0.37207 -4.09277,0.37207 -1.24024,0 -2.06706,-0.806152 -0.80615,-0.826822 -0.80615,-1.984373 0,-1.157551 0.80615,-1.984374 0.82682,-0.826822 2.06706,-0.826822 1.40559,0 3.70003,-0.310058 -0.0413,-2.439126 -0.0413,-9.343092 0,-5.622392 0.41342,-10.72802 l -4.48551,0.124024 q -1.24024,0 -2.08773,-0.806152 -0.82682,-0.806152 -0.82682,-2.005044 0,-1.219563 0.82682,-1.984374 0.76481,-0.702798 1.88102,-0.806151 1.81901,-0.165365 6.32519,-0.165365 4.05143,0 10.43863,0.868164 2.54248,0.351399 2.54248,2.852537 0,1.322915 -1.03353,2.087726 -0.84749,0.640787 -1.92236,0.640787 z"
       id="path848"
       style="font-weight:bold;font-size:42.3333px;line-height:1.25;font-family:'Comic Sans MS';-inkscape-font-specification:'Comic Sans MS, Bold';fill:none;stroke:#000000;stroke-width:1;stroke-miterlimit:4;stroke-dasharray:none" />
    <path
       d="m 221.36026,37.290059 q -1.86035,0 -2.74919,-1.963703 -0.41341,-0.930175 -0.82682,-1.11621 -0.31006,-0.144694 -1.63297,-0.144694 -2.60449,0 -6.01513,4.05143 -4.7749,5.663732 -4.7749,10.603996 0,2.25309 1.50895,3.865394 1.50895,1.612303 3.61734,1.612303 2.04639,0 4.15479,-1.074869 0.74414,-0.39274 3.14192,-2.025714 1.61231,-1.074869 2.43913,-1.074869 1.24023,0 2.10839,0.909504 0.80616,0.847493 0.80616,1.943033 0,1.219563 -1.07487,2.129067 -5.68441,4.795569 -11.57552,4.795569 -4.65087,0 -7.85481,-3.389971 -3.05924,-3.265948 -3.05924,-7.689447 0,-6.924637 6.05647,-14.138662 5.14697,-6.118485 10.52132,-6.118485 0.9095,0 1.63297,0.06201 0.74414,0.06201 1.30225,0.186035 0.9095,-0.888834 2.19108,-0.888834 2.10839,0 2.60449,2.418455 0.3514,1.736327 0.3514,4.05143 0,1.033527 -0.59945,1.88102 -0.78548,1.11621 -2.27376,1.11621 z"
       id="path850"
       style="font-weight:bold;font-size:42.3333px;line-height:1.25;font-family:'Comic Sans MS';-inkscape-font-specification:'Comic Sans MS, Bold';fill:none;stroke:#000000;stroke-width:1;stroke-miterlimit:4;stroke-dasharray:none" />
    <path
       style="fill:none;stroke:#000000;stroke-width:1;stroke-linecap:butt;stroke-linejoin:miter;stroke-miterlimit:4;stroke-dasharray:none;stroke-opacity:1"
       d="m 146.22495,239.53329 c -2.69975,-4.79949 -5.39962,-9.5992 -10.01438,-14.69342 -4.61476,-5.09421 -11.14399,-10.48232 -13.25218,-17.51002 -2.10818,-7.0277 0.20528,-15.69407 4.23617,-19.72706 4.03088,-4.03299 9.77837,-3.43194 13.23207,-1.62133 3.4537,1.8106 4.61338,4.83033 5.77295,7.8498 m -0.0254,45.70203 c 2.69975,-4.79949 5.39962,-9.5992 10.01438,-14.69342 4.61476,-5.09421 11.14399,-10.48232 13.25218,-17.51002 2.10818,-7.0277 -0.20528,-15.69407 -4.23617,-19.72706 -4.03088,-4.03299 -9.77837,-3.43194 -13.23207,-1.62133 -3.4537,1.8106 -4.61338,4.83033 -5.77295,7.8498"
       id="path14851-8"
       inkscape:path-effect="#path-effect15327;#path-effect15331"
       inkscape:original-d="m 146.22495,239.53329 c -2.69966,-4.79954 -5.39954,-9.59925 -8.09978,-14.39942 -6.52938,-5.38818 -13.05861,-10.77629 -19.58852,-16.165 2.31387,-8.66664 4.62733,-17.33301 6.94067,-26.00018 5.7481,0.60135 11.49559,1.20239 17.24317,1.80321 1.15998,3.02011 2.31966,6.03984 3.47909,9.05936"
       sodipodi:nodetypes="cccccc"
       transform="rotate(26.128334,555.83034,380.77729)" />
    <path
       d="m 309.59291,102.93992 q -2.42535,1.49931 -5.95313,3.83646 -7.45243,5.51215 -17.63888,18.9618 -7.80521,10.49514 -15.61042,21.03437 l -0.17639,0.22049 q 3.2191,-0.0882 15.52222,-0.61736 9.65729,-0.44097 15.38993,-0.44097 6.3059,0 8.55486,0.48507 5.29167,1.14652 5.46805,5.07117 0.1323,2.91042 -2.02847,4.58612 -1.85208,1.4552 -4.45382,1.4552 -1.27882,0 -3.83645,-0.17639 -2.55764,-0.13229 -3.83646,-0.13229 -6.70278,0 -20.15243,0.30868 -13.40555,0.35278 -20.10833,0.35278 -2.86632,0 -4.7184,-1.45521 -2.07257,-1.5875 -2.07257,-4.45382 0,-3.175 2.77812,-7.54062 0.88195,-1.36701 4.98299,-6.65868 7.23194,-9.65729 14.50798,-19.27048 8.64306,-11.1125 16.18368,-17.99167 -6.87916,0.48507 -10.49514,0.48507 h -17.81527 q -0.48507,0 -1.41111,0.0882 -0.92604,0.0441 -1.41111,0.0441 -2.60174,0 -4.40972,-1.49931 -2.02848,-1.675694 -2.02848,-4.497916 0,-6.041318 8.95174,-6.041318 3.04271,0 9.08402,0.396875 6.04132,0.352777 9.08403,0.352777 3.39549,0 10.14236,-0.176388 6.79097,-0.176389 10.18646,-0.176389 13.14097,0 13.14097,5.732638 0,3.660069 -5.82083,7.717011 z"
       style="font-weight:bold;font-size:90.3111px;line-height:1.25;font-family:'Comic Sans MS';-inkscape-font-specification:'Comic Sans MS, Bold';text-align:center;text-anchor:middle;fill-opacity:0;stroke:#000000;fill:none;stroke-width:1;stroke-miterlimit:4;stroke-dasharray:none"
       id="path11704" />
    <path
       d="m 249.70889,144.78818 q 0,2.20486 -0.74965,6.96736 -0.88195,5.68854 -6.4382,5.68854 -3.0868,0 -6.96736,-3.48368 -16.97742,-15.30173 -38.32048,-42.90659 -0.26458,11.46527 -0.26458,14.06701 0,3.48368 0.13229,10.49514 0.17639,7.01145 0.17639,10.49513 0,13.00868 -6.35,13.00868 -3.21909,0 -5.15937,-1.98437 -1.71979,-1.76389 -1.71979,-4.27743 0,-1.76389 0.26458,-5.33576 0.30868,-3.57188 0.30868,-5.33577 0,-2.60173 0.17639,-7.8052 0.17639,-5.20348 0.17639,-7.80521 0,-2.77813 -0.13229,-8.37847 -0.13229,-5.60035 -0.13229,-8.37847 0,-2.64584 -0.52917,-7.8934 -0.52917,-5.247573 -0.52917,-7.893406 0,-2.645833 2.24896,-4.718402 2.29306,-2.072569 5.20347,-2.072569 3.2632,0 7.23194,5.644443 20.02014,28.574994 39.51111,46.610754 0.0441,-1.41111 0.0441,-6.70277 0,-21.73993 -0.44098,-29.32465 -0.0882,-1.27882 -0.57326,-4.762501 -0.44097,-3.086805 -0.44097,-4.850694 0,-6.085416 6.43819,-6.085416 7.18785,0 7.18785,22.180901 0,0.48507 -0.0882,6.96736 -0.26458,22.40138 -0.26458,27.86944 z"
       style="font-weight:bold;font-size:90.3111px;line-height:1.25;font-family:'Comic Sans MS';-inkscape-font-specification:'Comic Sans MS, Bold';text-align:center;text-anchor:middle;fill-opacity:0;stroke:#000000;fill:none;stroke-width:1;stroke-miterlimit:4;stroke-dasharray:none"
       id="path11702" />
    <path
       d="m 169.05509,156.95901 q -3.48368,-0.13229 -7.01145,-8.20208 -2.33715,-5.20347 -4.01285,-11.99444 -3.26319,0.48506 -10.67152,0.97013 -6.96736,0.48507 -10.67153,1.14653 -2.02847,4.8507 -7.05556,14.59618 -1.94027,3.175 -5.37986,3.175 -2.42534,0 -4.36562,-1.6316 -1.94028,-1.67569 -1.94028,-4.23333 0,-2.24896 6.4382,-15.25764 -0.61736,-1.36701 -0.52917,-2.55764 0.17639,-2.11666 4.27743,-3.30729 6.2618,-10.84791 13.93472,-22.48958 11.0243,-16.712841 13.58194,-16.712841 4.8507,0 6.48229,5.86493 0.88195,4.718401 2.77813,14.155211 2.68993,12.69999 6.57048,29.06006 0.30868,1.23472 2.24896,5.82083 1.5875,3.79236 1.5875,5.68854 0,2.55764 -1.94028,4.27743 -1.89618,1.71979 -4.32153,1.6316 z m -16.44826,-45.24374 q -3.43958,5.90902 -9.4809,16.09548 1.98438,-0.44097 6.17361,-0.70555 4.93889,-0.30869 6.21771,-0.48507 -1.05833,-5.73264 -2.91042,-14.90486 z"
       style="font-weight:bold;font-size:90.3111px;line-height:1.25;font-family:'Comic Sans MS';-inkscape-font-specification:'Comic Sans MS, Bold';text-align:center;text-anchor:middle;fill-opacity:0;stroke:#000000;fill:none;stroke-width:1;stroke-miterlimit:4;stroke-dasharray:none"
       id="path11700" />
    <path
       d="m 110.14121,153.9604 q -5.20347,2.29305 -16.095477,4.10104 -9.965971,1.67569 -16.360067,1.67569 -10.803818,0 -10.803818,-9.4809 0,0.74966 0.881945,-13.97881 1.146527,-19.1382 1.146527,-42.597914 0,-2.513541 1.719792,-4.27743 1.763888,-1.763888 4.409721,-1.763888 2.645833,0 4.409722,1.763888 1.763888,1.763889 1.763888,4.27743 0,23.503814 -1.190625,43.303464 -0.396875,3.52778 -0.837847,10.80382 10.45104,-0.17639 26.811099,-5.11528 1.01424,-0.30868 1.94028,-0.30868 2.77813,0 4.49792,2.02847 1.5434,1.80799 1.5434,4.05695 0,3.79236 -3.83646,5.51215 z"
       style="font-weight:bold;font-size:90.3111px;line-height:1.25;font-family:'Comic Sans MS';-inkscape-font-specification:'Comic Sans MS, Bold';text-align:center;text-anchor:middle;fill-opacity:0;stroke:#000000;fill:none;stroke-width:1;stroke-miterlimit:4;stroke-dasharray:none"
       id="path11698" />
    <path
       d="m 61.678376,129.70693 q -2.99861,13.14097 -12.082636,21.03437 -9.216318,7.9375 -21.607636,7.9375 -11.729859,0 -17.594788,-6.17361 -5.8649298,-6.21771 -5.8649298,-18.60902 0,-11.28889 5.5562488,-23.15104 5.556249,-11.862152 14.287498,-19.226387 6.129513,-5.159375 13.14097,-5.159375 4.27743,0 11.641664,3.086806 8.731249,3.660068 8.731249,7.805207 0,2.381249 -1.807986,4.277429 -1.807986,1.85208 -4.453819,1.85208 -1.322916,0 -5.864929,-2.46944 -4.497916,-2.513542 -8.246179,-2.513542 -3.96875,0 -10.715624,8.554862 -9.833678,12.43541 -9.833678,26.9434 0,7.36423 2.160763,10.01006 2.293055,2.77813 8.86354,2.77813 6.746874,0 11.862151,-3.83646 5.423958,-4.05694 8.025693,-11.81805 -10.230554,0.79375 -17.815275,4.18923 -1.367013,0.61736 -2.734027,0.61736 -2.734027,0 -4.542013,-2.02847 -1.631597,-1.80798 -1.631597,-4.10104 0,-6.74687 15.963192,-9.4368 8.995832,-1.49931 20.990274,-1.49931 2.645833,0 4.409722,1.71979 1.807985,1.71979 1.807985,4.23334 0,3.21909 -2.645833,4.98298 z"
       style="font-weight:bold;font-size:90.3111px;line-height:1.25;font-family:'Comic Sans MS';-inkscape-font-specification:'Comic Sans MS, Bold';text-align:center;text-anchor:middle;fill-opacity:0;stroke:#000000;fill:none;stroke-width:1;stroke-miterlimit:4;stroke-dasharray:none"
       id="path11696" />
    <path
       id="rect15481"
       style="fill:none;stroke:#000000;stroke-linecap:round;stroke-width:1;stroke-miterlimit:4;stroke-dasharray:none"
       d="m 47.678162,181.4825 c 35.263539,-1.96487 105.765698,-1.81087 141.022158,0.30803 35.25646,2.11891 35.25646,6.20169 0,8.16557 -35.25646,1.96389 -105.770501,1.80987 -141.028099,-0.30843 -35.257597,-2.1183 -35.257597,-6.2003 0.0059,-8.16517 z"
       inkscape:path-effect="#path-effect1028"
       inkscape:original-d="m 12.414624,179.36358 c 70.527076,0.15432 141.029236,0.30831 211.542156,0.46207 0.001,4.08379 0.001,8.16657 0,12.24836 -70.51292,-0.15376 -141.026962,-0.30778 -211.542156,-0.46207 2.65e-4,-4.08257 2.65e-4,-8.16457 0,-12.24836 z"
       sodipodi:nodetypes="ccccc" />
    <path
       sodipodi:type="star"
       style="fill:none;stroke:#000000;stroke-width:3.77952761;stroke-linecap:round;stroke-miterlimit:4;stroke-dasharray:none;stroke-opacity:1"
       id="path15377"
       inkscape:flatsided="false"
       sodipodi:sides="5"
       sodipodi:cx="887.61053"
       sodipodi:cy="787.43042"
       sodipodi:r1="148.67468"
       sodipodi:r2="57.983128"
       sodipodi:arg1="0.58913793"
       sodipodi:arg2="1.2174565"
       inkscape:rounded="0"
       inkscape:randomized="0"
       d="M 1011.2216,870.04069 907.67462,841.83148 847.24143,930.51954 842.0722,823.32335 739.04995,793.25409 839.4022,755.21241 l -3.23805,-107.27188 67.19034,83.68513 101.02101,-36.22841 -58.82634,89.76194 z"
       transform="matrix(0.26458333,0,0,0.26458333,22.494397,0.65109831)"
       inkscape:transform-center-x="3.3006109"
       inkscape:transform-center-y="0.47614525" />
    <path
       id="rect15481-8"
       style="fill:none;stroke:#000000;stroke-linecap:round;stroke-width:1;stroke-miterlimit:4;stroke-dasharray:none"
       d="m 57.040192,206.61065 c 29.687895,-2.04189 89.062678,-2.04189 118.749568,0 29.6869,2.0419 29.6869,6.12468 0,8.16557 -29.68689,2.0409 -89.061673,2.0409 -118.749568,0 -29.687895,-2.04089 -29.687895,-6.12367 0,-8.16557 z"
       inkscape:path-effect="#path-effect1558"
       inkscape:original-d="m 27.352297,204.56876 c 59.37579,0.001 118.750573,0.001 178.124363,0 10e-4,4.08379 10e-4,8.16657 0,12.24836 -59.37379,0.001 -118.748573,0.001 -178.124363,0 0.001,-4.08179 0.001,-8.16457 0,-12.24836 z" />
    <path
       id="rect15481-5"
       style="fill:none;stroke:#000000;stroke-linecap:round;stroke-width:1;stroke-miterlimit:4;stroke-dasharray:none"
       d="m 86.942417,228.6948 c 29.687893,-2.04189 89.062673,-2.04189 118.749573,0 29.68689,2.0419 29.68689,6.12468 0,8.16557 -29.6869,2.0409 -89.06168,2.0409 -118.749573,0 -29.687893,-2.04089 -29.687893,-6.12367 0,-8.16557 z"
       inkscape:path-effect="#path-effect1577"
       inkscape:original-d="m 57.254524,226.65291 c 59.375786,0.001 118.750566,0.001 178.124356,0 0.001,4.08379 0.001,8.16657 0,12.24836 -59.37379,10e-4 -118.74857,10e-4 -178.124356,0 10e-4,-4.08179 10e-4,-8.16457 0,-12.24836 z" />
  </g>
</svg>
